<svg xmlns="http://www.w3.org/2000/svg" width="3840" height="3417" viewBox="0 0 3840 3417" version="1.1"><path d="M 1086 0.670 C 1050.436 6.323, 1010.975 18.972, 979.181 34.909 C 903.175 73.010, 844.887 134.227, 803.421 219.500 C 762.988 302.650, 741.155 401.942, 736.026 526 C 730.024 671.178, 752.719 856.900, 799.429 1044.853 C 801.938 1054.948, 803.741 1063.610, 803.436 1064.103 C 803.131 1064.597, 802.326 1065, 801.647 1065 C 800.051 1065, 769.426 1074.021, 737 1084.041 C 456.323 1170.781, 240.981 1289.634, 120.324 1424.403 C 85.259 1463.569, 60.361 1499.790, 39.843 1541.486 C 20.703 1580.380, 9.233 1617.144, 2.868 1660 C 0.244 1677.673, -0.757 1718.155, 0.935 1738.207 C 4.799 1783.984, 17.954 1830.486, 39.490 1874.500 C 90.006 1977.737, 186.793 2072.513, 328 2157.015 C 450.048 2230.051, 609.124 2296.134, 785.500 2347.067 C 795.400 2349.926, 803.616 2352.358, 803.757 2352.473 C 803.898 2352.587, 801.564 2362.765, 798.569 2375.090 C 724.535 2679.790, 715.188 2930.522, 771.007 3114.444 C 806.366 3230.953, 871.026 3319.329, 958.304 3370.439 C 994.865 3391.849, 1038.205 3407.451, 1082 3414.967 C 1094.077 3417.040, 1096.734 3417.101, 1160.500 3416.775 L 1226.500 3416.438 1241.381 3413.673 C 1296.184 3403.492, 1342.670 3389.726, 1396.500 3367.735 C 1550.363 3304.879, 1723.320 3184.113, 1898.972 3016.886 L 1920.060 2996.809 1938.280 3014.169 C 1996.893 3070.013, 2045.319 3112.504, 2101 3156.946 C 2285.837 3304.473, 2457.251 3391.796, 2607.500 3414.973 C 2619.476 3416.821, 2625.464 3416.980, 2683.540 3416.989 L 2746.581 3417 2761.040 3414.424 C 2893.822 3390.771, 2995.894 3302.311, 3052.169 3162.121 C 3104.097 3032.757, 3117.734 2859.360, 3092.445 2650 C 3081.992 2563.466, 3065.359 2473.639, 3041.911 2377.092 C 3038.651 2363.667, 3036.099 2352.589, 3036.242 2352.473 C 3036.384 2352.358, 3043.925 2350.129, 3053 2347.521 C 3246.679 2291.857, 3420.059 2217.346, 3547.500 2135.005 C 3680.301 2049.201, 3769.670 1952.566, 3812 1849 C 3821.251 1826.367, 3828.725 1801.591, 3833.419 1778 C 3836.228 1763.879, 3839 1743.692, 3839 1737.351 C 3839 1735.023, 3839.450 1732.840, 3840 1732.500 C 3840.624 1732.115, 3841 1722.470, 3841 1706.882 C 3841 1693.132, 3840.644 1682.102, 3840.209 1682.371 C 3839.774 1682.639, 3838.889 1677.378, 3838.241 1670.680 C 3832.219 1608.381, 3807.551 1544.277, 3766.161 1483.364 C 3745.507 1452.967, 3726.038 1429.880, 3694.572 1398.469 C 3663.917 1367.867, 3633.497 1341.924, 3598.163 1316.246 C 3465.558 1219.879, 3288.324 1138.758, 3066.630 1072.959 C 3050.202 1068.083, 3036.585 1063.919, 3036.372 1063.705 C 3036.158 1063.491, 3038.041 1055.032, 3040.557 1044.908 C 3068.605 932.047, 3088.878 814.745, 3098.438 710 C 3116.761 509.232, 3095.921 341.984, 3037.562 221.468 C 3025.969 197.527, 3018.781 184.930, 3004.488 163.500 C 2966.452 106.476, 2919.224 64.163, 2861.123 35.057 C 2833.251 21.095, 2807.115 12.001, 2771.215 3.776 L 2757.500 0.633 2687.310 0.273 L 2617.119 -0.088 2601.810 2.496 C 2464.301 25.708, 2315.856 97.572, 2151.500 220.494 C 2084.006 270.973, 2022.181 323.236, 1955.185 386.446 C 1942.912 398.026, 1929.978 410.135, 1926.442 413.355 L 1920.014 419.210 1913.084 412.855 C 1909.272 409.360, 1896.332 397.247, 1884.327 385.937 C 1664.943 179.262, 1449.962 47.345, 1269.113 8.430 C 1228.940 -0.215, 1231.759 -0.008, 1156 0.140 C 1118.875 0.213, 1087.375 0.451, 1086 0.670 M 1130.500 164.143 C 1026.360 173.187, 957.410 244.590, 924.028 377.959 C 914.567 415.756, 908.734 454.831, 904.763 507 C 902.840 532.273, 903.188 623.287, 905.324 653.500 C 913.342 766.908, 930.175 871.533, 961.022 999.693 C 963.777 1011.137, 966.209 1020.995, 966.426 1021.600 C 966.692 1022.337, 972.536 1021.434, 984.161 1018.860 C 1126.560 987.320, 1297.980 960.540, 1450.500 946.006 C 1462.600 944.853, 1473.884 943.699, 1475.575 943.442 C 1478.071 943.063, 1479.663 941.517, 1484.026 935.237 C 1517.509 887.048, 1584.782 797.985, 1634.896 735.500 C 1686.988 670.547, 1758.438 587.242, 1796.706 546.840 L 1803.015 540.179 1791.257 528.756 C 1747.432 486.177, 1690.350 435.687, 1641 395.852 C 1442.777 235.846, 1260.020 152.895, 1130.500 164.143 M 2666.500 163.586 C 2664.300 163.804, 2657.554 164.462, 2651.509 165.048 C 2561.928 173.736, 2445.439 222.874, 2326 302.355 C 2236.975 361.597, 2132.513 446.888, 2049.821 527.848 L 2037.141 540.261 2048.821 552.907 C 2144.193 656.173, 2264.433 805.589, 2351.474 929 C 2356.323 935.875, 2360.599 941.852, 2360.977 942.282 C 2361.355 942.712, 2374.902 944.398, 2391.082 946.028 C 2556.776 962.726, 2712.139 987.074, 2855.839 1018.864 C 2867.482 1021.440, 2873.311 1022.339, 2873.584 1021.600 C 2874.385 1019.430, 2886.948 966.082, 2891.504 945.500 C 2929.180 775.306, 2943.969 617.569, 2933.978 492.500 C 2922.132 344.196, 2876.150 239.926, 2802.438 194.211 C 2769.488 173.776, 2735.191 164.385, 2690.500 163.559 C 2679.500 163.355, 2668.700 163.367, 2666.500 163.586 M 1907.846 673.750 C 1841.227 747.395, 1779.214 821.693, 1716.083 903.500 C 1707.169 915.050, 1699.405 925.350, 1698.828 926.390 C 1697.815 928.217, 1698.257 928.258, 1712.140 927.621 C 1833.583 922.045, 1994.721 921.833, 2115.308 927.092 C 2129.502 927.711, 2141.332 928.001, 2141.597 927.736 C 2142.920 926.413, 2071.438 835.919, 2028.059 784 C 1990.783 739.387, 1921.911 661, 1919.989 661 C 1919.654 661, 1914.189 666.737, 1907.846 673.750 M 1835 1091.599 C 1774.078 1092.981, 1703.206 1095.598, 1661 1098.023 C 1602.211 1101.401, 1572.539 1103.549, 1570.934 1104.541 C 1569.762 1105.265, 1527.261 1168.928, 1507.540 1199.500 C 1410.385 1350.113, 1313.293 1521.584, 1237.775 1675.922 L 1221.910 1708.345 1245.023 1754.922 C 1334.638 1935.522, 1433.502 2106.550, 1545.130 2274.084 L 1570.838 2312.667 1587.669 2313.846 C 1705.447 2322.094, 1797.011 2325.188, 1922.500 2325.160 C 2039.248 2325.133, 2132.040 2322.120, 2236 2314.979 C 2251.675 2313.902, 2265.504 2313.017, 2266.732 2313.011 C 2268.561 2313.002, 2274.269 2305.013, 2298.354 2268.750 C 2409.657 2101.168, 2506.454 1933.451, 2595.484 1753.920 L 2618.087 1708.340 2602.224 1675.920 C 2527.501 1523.205, 2433.614 1357.072, 2336.941 1206.500 C 2316.174 1174.154, 2270.323 1105.317, 2269 1104.500 C 2265.615 1102.408, 2148.753 1095.876, 2062.500 1092.958 C 2033.036 1091.961, 1863.629 1090.949, 1835 1091.599 M 1352.500 1125.700 C 1350.850 1125.920, 1339.375 1127.439, 1327 1129.076 C 1230.873 1141.790, 1128.721 1159.336, 1041.747 1178.070 C 1028.961 1180.824, 1017.263 1183.341, 1015.750 1183.663 C 1014.237 1183.986, 1013 1184.591, 1013 1185.007 C 1013 1188.138, 1044.805 1282.565, 1060.485 1325.990 C 1076.919 1371.500, 1101.301 1434.323, 1121.033 1482 C 1126.610 1495.475, 1131.412 1507.287, 1131.703 1508.250 C 1131.995 1509.213, 1132.589 1510, 1133.024 1510 C 1133.459 1510, 1136.170 1505.388, 1139.048 1499.750 C 1190.310 1399.356, 1284.476 1236.468, 1352.369 1130.750 C 1354.400 1127.588, 1355.935 1125.067, 1355.781 1125.150 C 1355.626 1125.232, 1354.150 1125.480, 1352.500 1125.700 M 2487.645 1130.772 C 2556.358 1237.766, 2647.111 1394.803, 2701.458 1500.750 C 2704.067 1505.838, 2706.554 1510, 2706.985 1510 C 2707.415 1510, 2708.005 1509.213, 2708.297 1508.250 C 2708.588 1507.287, 2713.395 1495.475, 2718.978 1482 C 2738.331 1435.289, 2760.603 1377.941, 2778.204 1329.500 C 2796.076 1280.311, 2827.891 1185.557, 2826.876 1184.542 C 2826.298 1183.965, 2773.711 1172.766, 2745 1167.106 C 2671.866 1152.689, 2587.913 1138.884, 2516.500 1129.532 C 2501.650 1127.587, 2488.255 1125.782, 2486.733 1125.520 L 2483.966 1125.043 2487.645 1130.772 M 2983.972 1245.421 C 2940.505 1383.680, 2877.233 1546.612, 2809.192 1695.500 L 2803.251 1708.500 2805.081 1712.122 C 2809.287 1720.449, 2835.339 1779.189, 2850.487 1814.500 C 2891.830 1910.872, 2926.290 2000.123, 2959.405 2096.597 C 2969.563 2126.187, 2988.977 2185.798, 2989.011 2187.500 C 2989.085 2191.225, 2990.681 2191.023, 3013.070 2184.463 C 3240.675 2117.775, 3421.864 2031.425, 3538.467 1934.072 C 3555.825 1919.580, 3585.095 1891.232, 3598.429 1876 C 3621.314 1849.855, 3637.887 1825.588, 3649.989 1800.500 C 3671.118 1756.698, 3677.284 1714.688, 3668.935 1671.407 C 3644.476 1544.604, 3487.766 1413.506, 3236.901 1309.982 C 3167.657 1281.407, 3089.765 1254.386, 3006.892 1230.191 L 2990.285 1225.342 2983.972 1245.421 M 831.500 1230.620 C 749.489 1254.899, 686.877 1276.370, 620.500 1302.976 C 444.048 1373.702, 310.360 1458.573, 235.699 1547.265 C 171.408 1623.637, 152.546 1699.391, 179.093 1774.605 C 201.102 1836.959, 253.484 1899.419, 334.806 1960.273 C 449.958 2046.443, 623.743 2125.393, 830.500 2185.465 C 839.300 2188.022, 847.250 2190.332, 848.167 2190.598 C 849.458 2190.973, 850.183 2189.889, 851.382 2185.791 C 854.786 2174.158, 871.250 2123.874, 880.454 2097 C 920.757 1979.326, 969.579 1856.331, 1020.973 1743 C 1029.328 1724.575, 1036.193 1709.050, 1036.229 1708.500 C 1036.265 1707.950, 1031.893 1697.825, 1026.513 1686 C 979.117 1581.822, 934.387 1471.577, 896.477 1365.500 C 886.036 1336.286, 860.847 1261.357, 853.531 1237.750 C 850.714 1228.662, 849.505 1226.020, 848.194 1226.090 C 847.262 1226.139, 839.750 1228.178, 831.500 1230.620 M 1883.500 1367.536 C 1824.748 1373.964, 1768.426 1395.393, 1721.143 1429.307 C 1688.247 1452.902, 1659.309 1482.471, 1636.790 1515.500 C 1571.297 1611.560, 1559.126 1734.740, 1604.529 1842 C 1642.189 1930.967, 1718.085 2001.595, 1809.164 2032.431 C 1846.792 2045.171, 1878.672 2050.370, 1919.500 2050.424 C 1952.406 2050.468, 1973.538 2047.965, 2003.881 2040.429 C 2106.650 2014.903, 2193.945 1940.082, 2235.515 1841.895 C 2266.675 1768.294, 2271.051 1686.090, 2247.914 1609 C 2210.883 1485.622, 2105.494 1392.421, 1978.261 1370.532 C 1951.897 1365.996, 1909.748 1364.664, 1883.500 1367.536 M 0.435 1708 C 0.435 1722.025, 0.575 1727.763, 0.747 1720.750 C 0.919 1713.737, 0.919 1702.263, 0.747 1695.250 C 0.575 1688.237, 0.435 1693.975, 0.435 1708 M 1132.191 1907.664 C 1128.136 1915.333, 1092.181 2005.608, 1075.502 2050 C 1053.320 2109.036, 1012.329 2228.488, 1013.277 2231.330 C 1014.085 2233.756, 1126.819 2256.271, 1196.500 2267.923 C 1239.977 2275.193, 1279.546 2280.998, 1350.750 2290.552 C 1353.088 2290.866, 1355 2290.809, 1355 2290.426 C 1355 2290.042, 1351.180 2283.745, 1346.511 2276.432 C 1280.967 2173.765, 1204.552 2041.730, 1146.014 1930 C 1139.242 1917.075, 1133.580 1906.349, 1133.432 1906.164 C 1133.283 1905.980, 1132.725 1906.655, 1132.191 1907.664 M 2696.748 1924.804 C 2638.554 2036.375, 2566.365 2161.364, 2495.755 2272.810 C 2489.722 2282.331, 2485.010 2290.344, 2485.283 2290.617 C 2486.450 2291.784, 2583.911 2277.843, 2640.500 2268.415 C 2711.751 2256.543, 2825.893 2233.821, 2826.719 2231.344 C 2827.146 2230.063, 2798.845 2144.585, 2787.040 2111.500 C 2774.548 2076.490, 2755.408 2025.587, 2741.062 1989.216 C 2726.047 1951.150, 2708.272 1907.870, 2707.226 1906.829 C 2706.827 1906.432, 2702.112 1914.520, 2696.748 1924.804 M 966.490 2395.250 C 963.287 2404.193, 945.444 2483.611, 937.114 2526 C 896.801 2731.141, 892.076 2908.869, 923.536 3036.708 C 953.702 3159.288, 1014.312 3230.392, 1104 3248.418 C 1123.308 3252.299, 1137.660 3253.328, 1163.500 3252.685 C 1194.225 3251.921, 1215.277 3248.893, 1249.500 3240.317 C 1399.631 3202.695, 1583.838 3084.025, 1779.725 2898.735 L 1802.951 2876.766 1798.725 2872.018 C 1796.401 2869.406, 1786.382 2858.322, 1776.459 2847.385 C 1701.600 2764.874, 1622.877 2668.908, 1548.505 2569.500 C 1524.063 2536.830, 1486.375 2485.143, 1480.947 2476.847 C 1478.636 2473.314, 1478.308 2473.171, 1471.028 2472.526 C 1322.665 2459.380, 1142.948 2432.087, 999.604 2400.932 C 982.061 2397.120, 967.535 2394, 967.323 2394 C 967.111 2394, 966.736 2394.563, 966.490 2395.250 M 2851 2398.589 C 2722.710 2427.708, 2537.837 2456.450, 2384.426 2471.125 L 2361.352 2473.332 2359.007 2476.916 C 2354.349 2484.036, 2317.184 2535.134, 2296.033 2563.500 C 2214.376 2673.011, 2121.938 2784.869, 2039.778 2873.591 L 2036.916 2876.682 2060.208 2898.703 C 2171.443 3003.866, 2276.440 3085.962, 2376.087 3145.686 C 2475.597 3205.327, 2561.207 3239.026, 2642.500 3250.553 C 2657.588 3252.692, 2696.390 3253.559, 2711.500 3252.094 C 2817.919 3241.777, 2887.286 3166.219, 2918.990 3026.089 C 2938.605 2939.393, 2942.224 2827.180, 2929.459 2701.500 C 2921.708 2625.190, 2905.876 2532.367, 2886.050 2447 C 2875.610 2402.046, 2873.596 2394.529, 2871.938 2394.333 C 2871.147 2394.239, 2861.725 2396.154, 2851 2398.589 M 1699.684 2491.675 C 1701.318 2493.779, 1712.056 2507.650, 1723.547 2522.500 C 1770.436 2583.099, 1825.113 2649.453, 1871.457 2702 C 1890.310 2723.377, 1917.958 2753.856, 1919.182 2754.612 C 1920.609 2755.494, 1925.281 2750.600, 1956.055 2715.991 C 2016.925 2647.533, 2077.634 2573.684, 2138.314 2494.285 L 2143.064 2488.069 2136.782 2488.570 C 2094.344 2491.950, 1891.989 2494.144, 1811 2492.102 C 1755.973 2490.715, 1712.933 2489.250, 1703.607 2488.445 L 1696.714 2487.851 1699.684 2491.675" stroke="none" fill="#61dbfb" fill-rule="evenodd"/></svg>